<svg width="1920" height="350" viewBox="0 0 1920 350" fill="none" xmlns="http://www.w3.org/2000/svg">
<path fill-rule="evenodd" clip-rule="evenodd" d="M-85 77.6874C-85 72.2471 -80.2106 68.0506 -74.8175 68.7654L-10.9667 77.2278C63.0667 86.0586 211.133 104.701 359.2 86.0586C507.267 67.4159 655.333 10.5066 803.4 1.67582C951.467 -8.13613 1099.53 30.1305 1247.6 57.6039C1395.67 86.0586 1543.73 104.701 1691.8 57.6039C1798.48 23.6694 1904.27 26.8637 1982.76 10.3797C2033.09 -0.191102 2089.29 -5.70916 2134.8 18.2425V18.2425C2135.54 18.6308 2136 19.3958 2136 20.2294V341C2136 345.971 2131.97 350 2127 350H2061.97C1987.93 350 1839.87 350 1691.8 350C1543.73 350 1395.67 350 1247.6 350C1099.53 350 951.467 350 803.4 350C655.333 350 507.267 350 359.2 350C211.133 350 63.0667 350 -10.9667 350H-76C-80.9706 350 -85 345.971 -85 341V77.6874Z" fill="#121212"/>
</svg>
